<svg width="220" height="220" xmlns="http://www.w3.org/2000/svg"><path fill="#fff5f9" d="M0 0h36v36H0z"/><path fill="#e84686" d="M36 0h36v36H36zm36 0h36v36H72zm36 0h36v36h-36zm36 0h36v36h-36z"/><path fill="#fff5f9" d="M180 0h36v36h-36z"/><path fill="#e84686" d="M0 36h36v36H0zm36 0h36v36H36zm36 0h36v36H72zm36 0h36v36h-36zm36 0h36v36h-36zm36 0h36v36h-36z"/><path fill="#fff5f9" d="M0 72h36v36H0zm36 0h36v36H36z"/><path fill="#e84686" d="M72 72h36v36H72zm36 0h36v36h-36z"/><path fill="#fff5f9" d="M144 72h36v36h-36zm36 0h36v36h-36z"/><path fill="#e84686" d="M0 108h36v36H0zm36 0h36v36H36zm36 0h36v36H72zm36 0h36v36h-36zm36 0h36v36h-36zm36 0h36v36h-36z"/><path fill="#fff5f9" d="M0 144h36v36H0zm36 0h36v36H36z"/><path fill="#e84686" d="M72 144h36v36H72zm36 0h36v36h-36z"/><path fill="#fff5f9" d="M144 144h36v36h-36zm36 0h36v36h-36z"/><path fill="#e84686" d="M0 180h36v36H0z"/><path fill="#fff5f9" d="M36 180h36v36H36zm36 0h36v36H72zm36 0h36v36h-36zm36 0h36v36h-36z"/><path fill="#e84686" d="M180 180h36v36h-36z"/></svg>